HIERARCHY
ROOT Hips
{
	OFFSET 0.00000 0.00000 0.00000
	CHANNELS 6 Xposition Yposition Zposition Zrotation Yrotation Xrotation 
	JOINT LHipJoint
	{
		OFFSET 0 0 0
		CHANNELS 3 Zrotation Yrotation Xrotation
		JOINT LeftHip
		{
			OFFSET 2.36090 -1.39315 1.24752
			CHANNELS 3 Zrotation Yrotation Xrotation
			JOINT LeftKnee
			{
				OFFSET 2.06810 -5.68207 0.00000
				CHANNELS 3 Zrotation Yrotation Xrotation
				JOINT LeftAnkle
				{
					OFFSET 2.46631 -6.77613 0.00000
					CHANNELS 3 Zrotation Yrotation Xrotation
					JOINT LeftToe
					{
						OFFSET 0.26031 -0.71520 1.99545
						CHANNELS 3 Zrotation Yrotation Xrotation
						End Site
						{
							OFFSET 0.00000 -0.00000 1.05957
						}
					}
				}
			}
		}
	}
	JOINT RHipJoint
	{
		OFFSET 0 0 0
		CHANNELS 3 Zrotation Yrotation Xrotation
		JOINT RightHip
		{
			OFFSET -2.25243 -1.39315 1.24752
			CHANNELS 3 Zrotation Yrotation Xrotation
			JOINT RightKnee
			{
				OFFSET -2.17343 -5.97145 0.00000
				CHANNELS 3 Zrotation Yrotation Xrotation
				JOINT RightAnkle
				{
					OFFSET -2.52372 -6.93386 0.00000
					CHANNELS 3 Zrotation Yrotation Xrotation
					JOINT RightToe
					{
						OFFSET -0.22538 -0.61923 2.11447
						CHANNELS 3 Zrotation Yrotation Xrotation
						End Site
						{
							OFFSET -0.00000 -0.00000 1.10506
						}
					}
				}
			}
		}
	}
	JOINT lowerback
	{
		OFFSET 0 0 0
		CHANNELS 3 Zrotation Yrotation Xrotation
		JOINT Chest
		{
			OFFSET 0.01594 2.13103 0.08007
			CHANNELS 3 Zrotation Yrotation Xrotation
			JOINT Chest2
			{
				OFFSET 0.01393 2.09723 0.18338
				CHANNELS 3 Zrotation Yrotation Xrotation
				JOINT lowerneck
				{
					OFFSET 0 0 0
					CHANNELS 3 Zrotation Yrotation Xrotation
					JOINT Neck
					{
						OFFSET 0.05351 1.38915 0.32494
						CHANNELS 3 Zrotation Yrotation Xrotation
						JOINT Head
						{
							OFFSET 0.00711 1.45992 -0.21666
							CHANNELS 3 Zrotation Yrotation Xrotation
							End Site
							{
								OFFSET -0.00433 1.47702 -0.11056
							}
						}
					}
				}
				JOINT LeftCollar
				{
					OFFSET 0 0 0
					CHANNELS 3 Zrotation Yrotation Xrotation
					JOINT LeftShoulder
					{
						OFFSET 2.87198 0.92249 0.11132
CHANNELS 3 Zrotation Xrotation Yrotation
						JOINT LeftElbow
						{
OFFSET 0 -5.527310 0.000000
CHANNELS 3 Zrotation Xrotation Yrotation
							JOINT LeftWrist
							{
OFFSET 0 -3.110590 0.000000
CHANNELS 3 Zrotation Xrotation Yrotation
								JOINT lhand
								{
									OFFSET 0 0 0
CHANNELS 3 Zrotation Xrotation Yrotation
									JOINT LFingers
									{
OFFSET 0 -0.419630 0.000000
CHANNELS 3 Zrotation Xrotation Yrotation
										End Site
										{
OFFSET 0 -0.338310 0.000000
										}
									}
								}
								JOINT LThumb
								{
OFFSET 0 0.000000 0.000000
CHANNELS 3 Zrotation Xrotation Yrotation
									End Site
									{
OFFSET 0 -0.343480 0.343480
									}
								}
							}
						}
					}
				}
				JOINT RightCollar
				{
					OFFSET 0 0 0
					CHANNELS 3 Zrotation Yrotation Xrotation
					JOINT RightShoulder
					{
						OFFSET -2.94710 0.68072 0.32187
CHANNELS 3 Zrotation Xrotation Yrotation
						JOINT RightElbow
						{
OFFSET 0 -5.253960 -0.000000
CHANNELS 3 Zrotation Xrotation Yrotation
							JOINT RightWrist
							{
OFFSET 0 -3.105670 0.000000
CHANNELS 3 Zrotation Xrotation Yrotation
								JOINT rhand
								{
									OFFSET 0 0 0
CHANNELS 3 Zrotation Xrotation Yrotation
									JOINT RFingers
									{
OFFSET 0 -0.498680 0.000000
CHANNELS 3 Zrotation Xrotation Yrotation
										End Site
										{
OFFSET 0 -0.402040 0.000000
										}
									}
								}
								JOINT RThumb
								{
OFFSET 0 0.000000 0.000000
CHANNELS 3 Zrotation Xrotation Yrotation
									End Site
									{
OFFSET 0 -0.408180 0.408180
									}
								}
							}
						}
					}
				}
			}
		}
	}
}
MOTION
Frames: 4
Frame Time: 0.008333333333333333
8.185616 14.722968 22.014433 -383.906437 -75.132622 401.124526 0.000000 0.000000 0.000000 -13.006678 -11.134462 -52.100022 12.551865 18.614317 67.727756 0.965242 -1.268507 -18.185563 2.045320 -8.959849 -25.669714 0.000000 0.000000 0.000000 32.149346 19.385335 -34.364524 -5.738180 -14.169764 43.921763 -1.322825 -5.598704 -24.397993 -0.650868 -5.160548 14.367010 13.797377 -0.644723 -15.576846 4.218467 -3.338096 -7.862898 -3.718983 -2.224023 -0.283128 2.806066 4.261926 -19.510190 -3.703063 6.009661 31.088254 -0.956697 2.199229 14.095268 0.000000 0.000000 0.000000 6.269403 31.009334 -10.108124 75.254492 -59.158707 47.266327 43.010079 -38.932411 17.474457 0.000000 0.000000 0.000000 -7.125000 0.000000 0.000000 9.598320 6.956594 8.488123 0.000000 0.000000 0.000000 -15.477265 28.849883 21.428102 -136.603180 -49.956695 -98.995437 -50.892606 34.678141 5.807579 0.000000 0.000000 0.000000 7.125000 0.000000 0.000000 -20.705509 38.312459 -3.595506
8.208599 14.682452 22.028750 -387.154800 -75.174568 404.305047 0.000000 0.000000 0.000000 -12.444368 -15.494481 -49.110781 11.619775 18.225147 64.778410 1.301683 -3.971996 -20.625591 1.708150 -8.229431 -23.413371 0.000000 0.000000 0.000000 32.794198 19.661700 -34.482903 -5.805771 -14.237471 44.197209 -1.342324 -5.155896 -24.290289 -0.635395 -5.100081 14.194197 14.526133 -0.764826 -15.621090 4.219638 -3.633918 -7.457553 -4.168736 -2.343874 0.072020 3.489735 4.567417 -19.577283 -3.618023 6.189110 30.024590 -0.993827 2.408119 13.679074 0.000000 0.000000 0.000000 6.246320 28.465072 -16.913741 55.605623 -55.013413 30.713294 44.243379 -39.718319 19.177166 0.000000 0.000000 0.000000 -7.125000 0.000000 0.000000 9.981595 4.417199 9.328661 0.000000 0.000000 0.000000 -16.225267 27.412984 29.494042 -123.163486 -55.399749 -88.275914 -52.219405 34.878655 5.568691 0.000000 0.000000 0.000000 7.125000 0.000000 0.000000 -21.778687 38.107463 -3.920780
8.232005 14.655776 22.041015 -389.160643 -76.045518 406.457626 0.000000 0.000000 0.000000 -12.465272 -19.568098 -46.408812 10.751587 17.811236 61.972059 1.442241 -5.657751 -21.558816 1.533552 -7.817787 -22.162213 0.000000 0.000000 0.000000 32.487375 20.227226 -34.931366 -5.954412 -14.383979 44.798555 -1.417018 -4.227332 -24.358097 -0.674678 -5.252220 14.629343 14.500196 -0.577014 -15.587014 3.781805 -3.376079 -7.081806 -4.603762 -2.166790 0.480121 3.665760 4.453233 -19.986851 -2.990436 5.753429 28.970148 -0.837238 2.359761 13.281520 0.000000 0.000000 0.000000 6.109811 25.417276 -21.615101 42.048054 -49.230397 19.979013 43.514344 -39.897533 19.770979 0.000000 0.000000 0.000000 -7.125000 0.000000 0.000000 9.412640 3.917715 8.870171 0.000000 0.000000 0.000000 -16.020141 25.736318 33.973587 -105.406811 -59.075533 -73.300582 -52.755468 34.220837 5.494936 0.000000 0.000000 0.000000 7.125000 0.000000 0.000000 -22.217133 38.057157 -4.039665
8.273701 14.662109 22.072749 -389.918451 -77.204467 407.409651 0.000000 0.000000 0.000000 -12.353405 -23.431849 -43.737480 9.891961 17.348395 59.126270 1.328873 -2.221176 -21.179483 0.882375 -5.987311 -16.747788 0.000000 0.000000 0.000000 31.680444 20.429387 -35.563368 -6.081703 -14.506996 45.308587 -1.450957 -3.429728 -24.213535 -0.619194 -5.035816 14.010726 14.007019 -0.341939 -15.291990 3.299415 -2.928283 -6.756991 -4.790968 -1.893826 0.762743 3.619559 4.217265 -20.400375 -2.586682 5.300961 27.706709 -0.738223 2.245790 12.811596 0.000000 0.000000 0.000000 5.292167 22.330112 -24.004957 32.583731 -43.003440 13.138764 42.429779 -41.017010 18.703031 0.000000 0.000000 0.000000 -7.125000 0.000000 0.000000 8.985544 5.594633 8.170495 0.000000 0.000000 0.000000 -15.380247 24.422625 36.197191 -86.085372 -59.934893 -56.610743 -53.149904 32.972354 5.032584 0.000000 0.000000 0.000000 7.125000 0.000000 0.000000 -22.381166 37.396619 -4.462722
